<?xml version="1.0" standalone="no"?><!DOCTYPE svg PUBLIC "-//W3C//DTD SVG 1.1//EN" "http://www.w3.org/Graphics/SVG/1.1/DTD/svg11.dtd"><svg class="icon" height="512" viewBox="0 0 1024 1024" version="1.1" xmlns="http://www.w3.org/2000/svg"><path d="M464.505623 504.921659L281.999209 322.415245a28.951052 28.951052 0 1 1 40.939594-40.939594l182.506414 182.463901 187.352846-187.310333a28.951052 28.951052 0 1 1 40.939594 40.939594l-187.310333 187.352846 196.110433 196.152946a28.951052 28.951052 0 0 1-40.939594 40.939594l-196.152946-196.152946-191.306514 191.306514a28.951052 28.951052 0 0 1-40.939594-40.939594l191.306514-191.306514z m45.786026 519.078341c-281.858264 0-510.278241-228.46249-510.278242-510.278241C0.013407 231.863495 228.475898 3.401005 510.291649 3.401005c281.858264 0 510.320754 228.505003 510.320754 510.320754 0 281.858264-228.505003 510.278241-510.320754 510.278241z m0-46.381201c256.223191 0 463.89704-207.716362 463.89704-463.89704 0-256.223191-207.673849-463.89704-463.89704-463.89704-256.180678 0-463.89704 207.673849-463.89704 463.89704 0 256.180678 207.716362 463.89704 463.89704 463.89704z" fill="#FFFFFF" /></svg>